PathFileType	4	(X/Y/Z)	PS_ngait_og_ss11.trc	
DataRate	CameraRate	NumFrames	NumMarkers	Units	OrigDataRate	OrigDataStartFrame	OrigNumFrames	
120.00	120.00	5	39	mm	120.00	750	132	
Frame#	Time	Sternum			Neck			RShoulder			LShoulder			Xiphoid			Thoracic			RAsis			LAsis			RPsis			LPsis			LThighSuperior			LThighInferior			LThighLateral			LShankSuperior			LShankInferior			LShankLateral			RThighSuperior			RThighInferior			RThighLateral			RShankSuperior			RShankInferior			RShankLateral			RHeel			RToe			RMidfootMedial			RMidfootLateral			RHindfoot			RMidfootSuperior			RToeMedial			RToeLateral			LHeel			LToe			LMidfootMedial			LMidfootLateral			LHindfoot			LMidfootSuperior			LToeMedial			LToeLateral			Sacral			
		X1	Y1	Z1	X2	Y2	Z2	X3	Y3	Z3	X4	Y4	Z4	X5	Y5	Z5	X6	Y6	Z6	X7	Y7	Z7	X8	Y8	Z8	X9	Y9	Z9	X10	Y10	Z10	X11	Y11	Z11	X12	Y12	Z12	X13	Y13	Z13	X14	Y14	Z14	X15	Y15	Z15	X16	Y16	Z16	X17	Y17	Z17	X18	Y18	Z18	X19	Y19	Z19	X20	Y20	Z20	X21	Y21	Z21	X22	Y22	Z22	X23	Y23	Z23	X24	Y24	Z24	X25	Y25	Z25	X26	Y26	Z26	X27	Y27	Z27	X28	Y28	Z28	X29	Y29	Z29	X30	Y30	Z30	X31	Y31	Z31	X32	Y32	Z32	X33	Y33	Z33	X34	Y34	Z34	X35	Y35	Z35	X36	Y36	Z36	X37	Y37	Z37	X38	Y38	Z38	X39	Y39	Z39	

17	0.133	290.30014	1428.82397	146.84583	126.70955	1531.43860	144.59056	174.18550	1525.81519	306.43918	158.88147	1515.08350	7.79881	321.42825	1272.57837	164.32780	42.29038	1313.45740	159.39058	221.14035	1011.23596	311.50363	249.06544	1002.85223	38.19384	39.97918	1033.43018	213.58200	44.42065	1025.78418	110.54536	217.58916	833.94165	-13.07563	297.50330	615.10840	29.13706	339.46295	734.36121	76.88060	333.43488	381.60959	33.41882	323.19684	182.21196	68.48194	362.84720	281.18393	104.72151	147.91469	809.83087	355.62875	136.59700	570.10736	340.43381	238.87724	716.86029	296.67682	49.14762	446.65280	346.52548	-118.26426	260.44003	303.08508	9.17012	316.86124	269.43973	-255.90526	238.01434	250.61588	-43.75777	17.64700	240.26018	-128.79086	63.61117	192.90956	-140.26848	50.63882	311.06207	-172.25291	87.65746	302.89734	-127.43773	129.90356	250.22676	-94.06999	41.72005	193.62143	-96.32323	29.59709	296.36612	238.47762	62.79485	124.38437	549.56653	62.67306	86.50331	454.70734	36.94028	147.58391	445.86362	33.57529	31.12180	392.08832	31.11054	44.26166	426.17429	97.92336	99.47646	496.50333	38.69599	139.93831	489.54709	44.27551	36.30472	42.19992	1029.60718	162.06367 
18	0.142	299.28476	1430.55066	145.81944	135.58757	1532.87744	143.61348	182.86496	1527.48853	305.21500	168.13449	1516.79102	6.61809	330.57162	1274.25037	163.23927	51.59111	1314.67908	158.62996	230.56514	1012.20062	310.71790	258.49643	1004.80969	36.99953	49.43781	1035.01245	212.87450	53.89664	1027.20923	109.64904	225.75790	835.35144	-13.52117	302.19540	614.88806	29.50480	347.47510	733.51996	75.03897	335.98798	381.44659	33.49913	323.91791	182.14034	68.69433	365.49237	280.52780	105.00508	162.05351	810.14099	355.51486	155.68582	570.04932	341.34891	253.64520	718.89966	296.64960	68.57184	448.71475	348.27747	-102.78844	266.97839	304.93512	25.27482	320.90668	270.24066	-237.60010	252.34192	252.96384	-41.31644	14.99409	241.50798	-121.77145	70.45710	194.20361	-132.75386	56.45592	310.84177	-163.42395	96.76901	304.31006	-113.04564	135.13257	252.68277	-88.79348	44.63271	195.10229	-92.49294	31.64621	297.69946	238.48549	62.75593	124.34993	549.81738	62.22408	86.58903	454.78912	36.75937	147.63156	445.93723	33.53383	31.08521	392.08371	31.08046	44.24647	426.14395	97.78766	99.61502	496.64334	38.38429	139.97525	489.75424	44.09680	36.34442	51.66722	1031.11084	161.26176 
19	0.150	308.25467	1432.19666	144.97168	144.21373	1534.19556	142.74660	191.30515	1529.02612	304.07016	177.33322	1518.43823	5.64331	339.69339	1275.91357	162.17905	60.69057	1315.98608	157.79839	239.79851	1013.11328	309.93134	267.88324	1006.79187	35.81140	58.76738	1036.60547	212.07162	63.26427	1028.68445	108.56109	233.54276	836.60168	-14.00108	307.43393	615.42261	29.03246	354.74002	733.05396	73.93174	338.34106	381.09644	33.63460	324.96396	182.06741	68.77689	367.13879	280.07889	104.38433	176.25069	810.57971	355.47116	174.55276	570.41388	342.19745	268.01999	721.23035	296.66513	87.97141	451.23212	349.93033	-86.66411	273.12598	306.44409	41.80497	324.96179	271.32983	-219.86839	264.77893	255.19713	-40.10519	9.89857	240.44128	-113.24685	76.92590	195.99011	-123.65896	63.33989	311.45969	-153.36385	105.56633	305.53201	-93.96916	138.69099	255.08339	-84.10799	46.64183	195.72339	-87.00951	32.62522	298.21060	238.50342	62.78002	124.34388	550.04181	61.86589	86.60196	454.85312	36.65419	147.72824	445.94107	33.50789	31.06559	392.07977	31.08561	44.25289	426.16452	97.57444	99.59590	496.80881	38.17346	139.99501	489.90347	43.95643	36.36917	61.01582	1032.64502	160.31636 
20	0.158	317.11816	1433.94739	144.27946	152.67201	1535.46960	141.94554	199.62903	1530.60681	303.19928	186.33876	1520.10632	4.64156	348.77930	1277.72058	161.31464	69.65884	1317.39722	156.99944	249.03842	1013.99774	309.08069	277.36731	1008.77222	34.62385	68.12536	1038.18604	211.17343	72.72961	1030.18372	107.46067	240.99391	837.70465	-14.56092	312.30719	615.52734	29.04544	361.39655	732.78400	72.96091	340.87231	381.32672	33.27525	326.25543	181.76505	68.86240	368.82114	279.77032	104.19597	190.55359	811.20636	355.05502	192.98920	571.35583	342.96793	282.48392	723.74878	296.37772	107.17351	454.14310	351.47635	-70.32964	279.15714	308.02237	58.99173	328.97626	272.10831	-203.15234	273.12485	256.95587	-33.57079	9.25665	240.40045	-102.53501	82.54843	196.88057	-113.16625	68.81220	311.86694	-141.20590	112.39870	307.04419	-77.71688	141.49202	256.77536	-75.11465	49.59108	196.43176	-78.21617	34.75785	298.79813	238.54198	62.81413	124.37033	550.14764	61.53829	86.45381	454.93286	36.59097	147.78439	446.00046	33.43238	31.06510	391.99390	31.03118	44.30917	426.29129	97.43736	99.65715	496.93927	38.01550	139.94633	489.88608	43.74515	36.32749	70.42748	1034.18481	159.31705 
21	0.167	326.04721	1435.85352	143.64505	160.99625	1536.86133	141.10547	207.95210	1532.11694	302.46106	195.28267	1521.76453	3.82865	357.85001	1279.55408	160.73181	78.53003	1318.99854	156.17632	258.21408	1014.69373	308.15445	285.84369	1010.59943	34.10894	77.15996	1039.88660	210.76804	81.25170	1031.80261	107.12796	248.16125	838.67450	-15.23345	317.30817	615.71405	28.67104	367.76553	732.51111	72.01786	344.13901	381.02615	32.78357	327.11530	181.94916	68.65599	370.74072	279.40201	104.11764	204.03198	811.91455	354.61087	211.29051	573.10559	343.65387	296.99445	726.62653	295.77469	126.47546	457.12997	352.48306	-53.89834	285.09839	309.36890	76.09323	333.14539	272.77698	-187.69696	279.82410	258.68878	-20.22241	14.56123	241.11134	-88.54216	88.59393	197.86923	-97.79153	74.89881	313.25146	-126.18274	118.49430	308.49365	-62.41276	147.45851	257.28210	-61.58968	55.27260	197.32393	-64.00798	40.92243	299.77753	238.57120	62.89053	124.36127	550.37299	61.33438	86.32295	454.95169	36.50995	147.80103	446.07529	33.34877	31.01375	392.10208	31.05639	44.28010	426.39667	97.36235	99.64827	497.14017	37.91318	139.83571	490.07196	43.61891	36.21657	79.20583	1035.84460	158.94800 
